<svg t="1611109338490" class="icon" viewBox="0 0 1024 1024" version="1.1" xmlns="http://www.w3.org/2000/svg" p-id="1167" width="200" height="200"><path d="M268.8256 479.9872c-13.6576 3.9552-25.6 12.8-25.6 12.8V364.8s-22.6176-43.8528-63.9872-38.4c-56.0512 7.3984-63.9872 51.2-63.9872 51.2v179.1744c5.8624 110.7072 179.1744 204.7744 179.1744 204.7744v127.9872H473.6V671.9616c-24.6272-25.7536-127.9872-179.1744-127.9872-179.1744s-34.0096-25.1776-76.7872-12.8z m153.5872 358.3488h-76.7872v-102.3872s-138.9696-75.584-179.1744-166.3744V390.4s0.384-6.3744 13.1456-6.8096c11.6096-0.3968 12.4544 6.8096 12.4544 6.8096v115.1872s-1.4848 99.904 102.3872 140.7872c0 0 20.6848 3.4432 25.6-12.8 6.0672-20.0448-5.5296-34.3168-38.4-63.9872-14.6944-13.2608-23.1296-22.0032-28.4544-30.528a87.7824 87.7824 0 0 0 15.6544-7.872s34.496-11.264 51.2 12.8c11.2256 16.1664 91.7504 126.1952 102.3872 140.7872v153.5616z m396.7488-511.5264c-41.3696-5.4528-63.9872 38.3616-63.9872 38.3616v127.8976s-11.9424-8.8448-25.6-12.7872c-42.7776-12.3648-76.7872 12.7872-76.7872 12.7872S549.4144 646.3744 524.8 672.1152v217.4208h179.1744v-127.8976s173.312-93.9904 179.1744-204.6336V377.9584s-7.936-43.7632-63.9872-51.1488z m12.8 242.9952c-40.2048 90.7264-179.1744 166.2592-179.1744 166.2592v102.3104H576v-153.472c10.6368-14.5792 91.1616-124.5184 102.3872-140.6848 16.6912-24.0384 51.2-12.7872 51.2-12.7872 5.632 3.5584 10.7648 5.9648 15.6544 7.8592-5.3248 8.5248-13.76 17.2544-28.4544 30.5024-32.8704 29.6576-44.4544 43.9168-38.4 63.9488 4.9152 16.2304 25.6 12.7872 25.6 12.7872 103.872-40.8576 102.3872-140.6848 102.3872-140.6848v-115.0976c12.2368-14.1568 25.6 0 25.6 0v179.0592zM690.1888 265.3056c7.7056-64.4736-41.0368-115.392-95.2448-118.08-54.208-2.688-95.2448 53.6704-95.2448 53.6704s-41.2416-56.3584-95.744-53.6704c-54.4896 2.688-103.488 53.6064-95.744 118.08 7.744 64.4736 106.5088 168.8064 191.4752 214.6816 84.544-45.8752 182.7968-150.208 190.5024-214.6816zM499.2 416c-152.5888-89.8944-159.552-180.3008-127.9872-204.7744 53.5168-41.4976 108.16 38.6688 127.9872 63.9872v-0.5248c19.4944-25.4208 73.216-105.8688 125.8368-64.2304 31.04 24.576 24.192 115.3024-125.8368 205.5424z" p-id="1168" fill="#ffffff"></path></svg>